<svg xmlns="http://www.w3.org/2000/svg" xmlns:xlink="http://www.w3.org/1999/xlink" width="1080" zoomAndPan="magnify" viewBox="0 0 810 404.99999" height="540" preserveAspectRatio="xMidYMid meet" version="1.0"><defs><g/><clipPath id="57cdb15044"><path d="M 356.363281 52.8125 L 466.523438 52.8125 L 466.523438 380.054688 L 356.363281 380.054688 Z M 356.363281 52.8125 " clip-rule="nonzero"/></clipPath></defs><g fill="#000000" fill-opacity="1"><g transform="translate(77.658761, 231.375495)"><g><path d="M 45.3125 -86.03125 C 49.726562 -86.03125 53.773438 -85.34375 57.453125 -83.96875 C 61.140625 -82.601562 64.320312 -80.867188 67 -78.765625 C 69.6875 -76.660156 71.789062 -74.53125 73.3125 -72.375 C 74.84375 -70.21875 75.609375 -68.40625 75.609375 -66.9375 L 71.515625 -64.875 L 71.515625 -76.40625 C 71.515625 -79.144531 72.40625 -81.429688 74.1875 -83.265625 C 75.976562 -85.109375 78.242188 -86.03125 80.984375 -86.03125 C 83.722656 -86.03125 85.984375 -85.132812 87.765625 -83.34375 C 89.554688 -81.5625 90.453125 -79.25 90.453125 -76.40625 L 90.453125 -6.15625 C 90.453125 3 88.476562 10.335938 84.53125 15.859375 C 80.582031 21.390625 75.398438 25.390625 68.984375 27.859375 C 62.566406 30.335938 55.675781 31.578125 48.3125 31.578125 C 46.195312 31.578125 43.457031 31.3125 40.09375 30.78125 C 36.726562 30.257812 33.519531 29.628906 30.46875 28.890625 C 27.414062 28.148438 25.097656 27.46875 23.515625 26.84375 C 20.359375 25.46875 18.175781 23.753906 16.96875 21.703125 C 15.757812 19.648438 15.523438 17.46875 16.265625 15.15625 C 17.210938 12.101562 18.738281 10.023438 20.84375 8.921875 C 22.945312 7.816406 25.15625 7.6875 27.46875 8.53125 C 28.519531 8.84375 30.253906 9.472656 32.671875 10.421875 C 35.097656 11.367188 37.753906 12.234375 40.640625 13.015625 C 43.535156 13.804688 46.09375 14.203125 48.3125 14.203125 C 56.195312 14.203125 62.035156 12.625 65.828125 9.46875 C 69.617188 6.3125 71.515625 1.945312 71.515625 -3.625 L 71.515625 -17.359375 L 73.40625 -15.9375 C 73.40625 -14.570312 72.691406 -12.914062 71.265625 -10.96875 C 69.847656 -9.019531 67.898438 -7.097656 65.421875 -5.203125 C 62.953125 -3.316406 60.035156 -1.710938 56.671875 -0.390625 C 53.304688 0.921875 49.726562 1.578125 45.9375 1.578125 C 38.46875 1.578125 31.734375 -0.285156 25.734375 -4.015625 C 19.734375 -7.753906 14.992188 -12.910156 11.515625 -19.484375 C 8.046875 -26.066406 6.3125 -33.625 6.3125 -42.15625 C 6.3125 -50.78125 8.046875 -58.378906 11.515625 -64.953125 C 14.992188 -71.535156 19.675781 -76.691406 25.5625 -80.421875 C 31.457031 -84.160156 38.039062 -86.03125 45.3125 -86.03125 Z M 48.3125 -68.671875 C 43.570312 -68.671875 39.410156 -67.507812 35.828125 -65.1875 C 32.253906 -62.875 29.46875 -59.71875 27.46875 -55.71875 C 25.46875 -51.71875 24.46875 -47.195312 24.46875 -42.15625 C 24.46875 -37.207031 25.46875 -32.734375 27.46875 -28.734375 C 29.46875 -24.734375 32.253906 -21.570312 35.828125 -19.25 C 39.410156 -16.9375 43.570312 -15.78125 48.3125 -15.78125 C 53.144531 -15.78125 57.347656 -16.9375 60.921875 -19.25 C 64.503906 -21.570312 67.296875 -24.734375 69.296875 -28.734375 C 71.296875 -32.734375 72.296875 -37.207031 72.296875 -42.15625 C 72.296875 -47.195312 71.296875 -51.71875 69.296875 -55.71875 C 67.296875 -59.71875 64.503906 -62.875 60.921875 -65.1875 C 57.347656 -67.507812 53.144531 -68.671875 48.3125 -68.671875 Z M 48.3125 -68.671875 "/></g></g></g><g fill="#000000" fill-opacity="1"><g transform="translate(178.366149, 231.375495)"><g><path d="M 19.734375 0 C 16.992188 0 14.726562 -0.921875 12.9375 -2.765625 C 11.15625 -4.609375 10.265625 -6.894531 10.265625 -9.625 L 10.265625 -74.828125 C 10.265625 -77.554688 11.15625 -79.84375 12.9375 -81.6875 C 14.726562 -83.53125 16.992188 -84.453125 19.734375 -84.453125 C 22.472656 -84.453125 24.734375 -83.53125 26.515625 -81.6875 C 28.304688 -79.84375 29.203125 -77.554688 29.203125 -74.828125 L 29.203125 -59.984375 L 28.09375 -70.5625 C 29.25 -73.09375 30.75 -75.328125 32.59375 -77.265625 C 34.4375 -79.210938 36.515625 -80.84375 38.828125 -82.15625 C 41.148438 -83.476562 43.625 -84.453125 46.25 -85.078125 C 48.882812 -85.710938 51.515625 -86.03125 54.140625 -86.03125 C 57.296875 -86.03125 59.953125 -85.132812 62.109375 -83.34375 C 64.273438 -81.5625 65.359375 -79.457031 65.359375 -77.03125 C 65.359375 -73.5625 64.460938 -71.0625 62.671875 -69.53125 C 60.878906 -68.007812 58.929688 -67.25 56.828125 -67.25 C 54.828125 -67.25 53.007812 -67.613281 51.375 -68.34375 C 49.75 -69.082031 47.882812 -69.453125 45.78125 -69.453125 C 43.882812 -69.453125 41.960938 -69.003906 40.015625 -68.109375 C 38.066406 -67.222656 36.273438 -65.832031 34.640625 -63.9375 C 33.015625 -62.039062 31.703125 -59.695312 30.703125 -56.90625 C 29.703125 -54.113281 29.203125 -50.828125 29.203125 -47.046875 L 29.203125 -9.625 C 29.203125 -6.894531 28.304688 -4.609375 26.515625 -2.765625 C 24.734375 -0.921875 22.472656 0 19.734375 0 Z M 19.734375 0 "/></g></g></g><g fill="#000000" fill-opacity="1"><g transform="translate(246.872429, 231.375495)"><g><path d="M 92.1875 -42.15625 C 92.1875 -33.519531 90.265625 -25.910156 86.421875 -19.328125 C 82.585938 -12.753906 77.429688 -7.625 70.953125 -3.9375 C 64.484375 -0.257812 57.25 1.578125 49.25 1.578125 C 41.25 1.578125 34.015625 -0.257812 27.546875 -3.9375 C 21.078125 -7.625 15.921875 -12.753906 12.078125 -19.328125 C 8.234375 -25.910156 6.3125 -33.519531 6.3125 -42.15625 C 6.3125 -50.78125 8.234375 -58.378906 12.078125 -64.953125 C 15.921875 -71.535156 21.078125 -76.691406 27.546875 -80.421875 C 34.015625 -84.160156 41.25 -86.03125 49.25 -86.03125 C 57.25 -86.03125 64.484375 -84.160156 70.953125 -80.421875 C 77.429688 -76.691406 82.585938 -71.535156 86.421875 -64.953125 C 90.265625 -58.378906 92.1875 -50.78125 92.1875 -42.15625 Z M 73.25 -42.15625 C 73.25 -47.519531 72.171875 -52.171875 70.015625 -56.109375 C 67.859375 -60.054688 64.960938 -63.132812 61.328125 -65.34375 C 57.691406 -67.5625 53.664062 -68.671875 49.25 -68.671875 C 44.832031 -68.671875 40.804688 -67.5625 37.171875 -65.34375 C 33.546875 -63.132812 30.648438 -60.054688 28.484375 -56.109375 C 26.328125 -52.171875 25.25 -47.519531 25.25 -42.15625 C 25.25 -36.882812 26.328125 -32.273438 28.484375 -28.328125 C 30.648438 -24.390625 33.546875 -21.3125 37.171875 -19.09375 C 40.804688 -16.882812 44.832031 -15.78125 49.25 -15.78125 C 53.664062 -15.78125 57.691406 -16.882812 61.328125 -19.09375 C 64.960938 -21.3125 67.859375 -24.390625 70.015625 -28.328125 C 72.171875 -32.273438 73.25 -36.882812 73.25 -42.15625 Z M 73.25 -42.15625 "/></g></g></g><g fill="#000000" fill-opacity="1"><g transform="translate(345.389083, 231.375495)"><g/></g></g><g fill="#000000" fill-opacity="1"><g transform="translate(389.586687, 231.375495)"><g/></g></g><g fill="#000000" fill-opacity="1"><g transform="translate(433.78429, 231.375495)"><g/></g></g><g fill="#000000" fill-opacity="1"><g transform="translate(478.001264, 231.375495)"><g><path d="M 50.046875 1.578125 C 41.097656 1.578125 33.332031 -0.285156 26.75 -4.015625 C 20.175781 -7.753906 15.125 -12.832031 11.59375 -19.25 C 8.070312 -25.675781 6.3125 -32.941406 6.3125 -41.046875 C 6.3125 -50.515625 8.234375 -58.585938 12.078125 -65.265625 C 15.921875 -71.953125 20.945312 -77.082031 27.15625 -80.65625 C 33.363281 -84.238281 39.941406 -86.03125 46.890625 -86.03125 C 52.253906 -86.03125 57.328125 -84.925781 62.109375 -82.71875 C 66.898438 -80.507812 71.132812 -77.484375 74.8125 -73.640625 C 78.5 -69.796875 81.421875 -65.347656 83.578125 -60.296875 C 85.742188 -55.242188 86.828125 -49.878906 86.828125 -44.203125 C 86.722656 -41.671875 85.722656 -39.613281 83.828125 -38.03125 C 81.929688 -36.457031 79.71875 -35.671875 77.1875 -35.671875 L 16.890625 -35.671875 L 12.15625 -51.46875 L 70.09375 -51.46875 L 66.609375 -48.3125 L 66.609375 -52.5625 C 66.398438 -55.613281 65.320312 -58.347656 63.375 -60.765625 C 61.425781 -63.191406 59.003906 -65.113281 56.109375 -66.53125 C 53.222656 -67.957031 50.148438 -68.671875 46.890625 -68.671875 C 43.734375 -68.671875 40.785156 -68.25 38.046875 -67.40625 C 35.304688 -66.5625 32.9375 -65.140625 30.9375 -63.140625 C 28.9375 -61.140625 27.359375 -58.457031 26.203125 -55.09375 C 25.046875 -51.726562 24.46875 -47.46875 24.46875 -42.3125 C 24.46875 -36.625 25.648438 -31.804688 28.015625 -27.859375 C 30.390625 -23.910156 33.441406 -20.910156 37.171875 -18.859375 C 40.910156 -16.804688 44.882812 -15.78125 49.09375 -15.78125 C 52.988281 -15.78125 56.09375 -16.097656 58.40625 -16.734375 C 60.71875 -17.367188 62.582031 -18.128906 64 -19.015625 C 65.425781 -19.910156 66.71875 -20.675781 67.875 -21.3125 C 69.769531 -22.257812 71.5625 -22.734375 73.25 -22.734375 C 75.5625 -22.734375 77.476562 -21.941406 79 -20.359375 C 80.53125 -18.785156 81.296875 -16.945312 81.296875 -14.84375 C 81.296875 -12 79.820312 -9.421875 76.875 -7.109375 C 74.132812 -4.785156 70.289062 -2.753906 65.34375 -1.015625 C 60.40625 0.710938 55.304688 1.578125 50.046875 1.578125 Z M 50.046875 1.578125 "/></g></g></g><g fill="#000000" fill-opacity="1"><g transform="translate(571.131909, 231.375495)"><g><path d="M 19.734375 0 C 16.992188 0 14.726562 -0.921875 12.9375 -2.765625 C 11.15625 -4.609375 10.265625 -6.894531 10.265625 -9.625 L 10.265625 -74.828125 C 10.265625 -77.554688 11.15625 -79.84375 12.9375 -81.6875 C 14.726562 -83.53125 16.992188 -84.453125 19.734375 -84.453125 C 22.472656 -84.453125 24.734375 -83.53125 26.515625 -81.6875 C 28.304688 -79.84375 29.203125 -77.554688 29.203125 -74.828125 L 29.203125 -59.984375 L 28.09375 -70.5625 C 29.25 -73.09375 30.75 -75.328125 32.59375 -77.265625 C 34.4375 -79.210938 36.515625 -80.84375 38.828125 -82.15625 C 41.148438 -83.476562 43.625 -84.453125 46.25 -85.078125 C 48.882812 -85.710938 51.515625 -86.03125 54.140625 -86.03125 C 57.296875 -86.03125 59.953125 -85.132812 62.109375 -83.34375 C 64.273438 -81.5625 65.359375 -79.457031 65.359375 -77.03125 C 65.359375 -73.5625 64.460938 -71.0625 62.671875 -69.53125 C 60.878906 -68.007812 58.929688 -67.25 56.828125 -67.25 C 54.828125 -67.25 53.007812 -67.613281 51.375 -68.34375 C 49.75 -69.082031 47.882812 -69.453125 45.78125 -69.453125 C 43.882812 -69.453125 41.960938 -69.003906 40.015625 -68.109375 C 38.066406 -67.222656 36.273438 -65.832031 34.640625 -63.9375 C 33.015625 -62.039062 31.703125 -59.695312 30.703125 -56.90625 C 29.703125 -54.113281 29.203125 -50.828125 29.203125 -47.046875 L 29.203125 -9.625 C 29.203125 -6.894531 28.304688 -4.609375 26.515625 -2.765625 C 24.734375 -0.921875 22.472656 0 19.734375 0 Z M 19.734375 0 "/></g></g></g><g fill="#000000" fill-opacity="1"><g transform="translate(639.638189, 231.375495)"><g><path d="M 72.9375 -84.453125 C 75.664062 -84.453125 77.925781 -83.53125 79.71875 -81.6875 C 81.507812 -79.84375 82.40625 -77.554688 82.40625 -74.828125 L 82.40625 -7.734375 C 82.40625 1.941406 80.585938 9.648438 76.953125 15.390625 C 73.328125 21.128906 68.460938 25.257812 62.359375 27.78125 C 56.253906 30.3125 49.410156 31.578125 41.828125 31.578125 C 38.460938 31.578125 34.882812 31.3125 31.09375 30.78125 C 27.3125 30.257812 24.207031 29.472656 21.78125 28.421875 C 18.625 27.046875 16.441406 25.332031 15.234375 23.28125 C 14.023438 21.226562 13.785156 19.046875 14.515625 16.734375 C 15.460938 13.679688 16.988281 11.601562 19.09375 10.5 C 21.207031 9.394531 23.421875 9.265625 25.734375 10.109375 C 27.410156 10.628906 29.617188 11.441406 32.359375 12.546875 C 35.097656 13.648438 38.253906 14.203125 41.828125 14.203125 C 46.671875 14.203125 50.695312 13.546875 53.90625 12.234375 C 57.113281 10.921875 59.535156 8.710938 61.171875 5.609375 C 62.804688 2.503906 63.625 -1.734375 63.625 -7.109375 L 63.625 -17.6875 L 66.9375 -13.890625 C 65.144531 -10.421875 62.90625 -7.550781 60.21875 -5.28125 C 57.539062 -3.019531 54.359375 -1.3125 50.671875 -0.15625 C 46.984375 1 42.773438 1.578125 38.046875 1.578125 C 32.460938 1.578125 27.59375 0.289062 23.4375 -2.28125 C 19.28125 -4.863281 16.046875 -8.441406 13.734375 -13.015625 C 11.421875 -17.597656 10.265625 -22.835938 10.265625 -28.734375 L 10.265625 -74.828125 C 10.265625 -77.554688 11.15625 -79.84375 12.9375 -81.6875 C 14.726562 -83.53125 16.992188 -84.453125 19.734375 -84.453125 C 22.472656 -84.453125 24.734375 -83.53125 26.515625 -81.6875 C 28.304688 -79.84375 29.203125 -77.554688 29.203125 -74.828125 L 29.203125 -34.40625 C 29.203125 -27.570312 30.703125 -22.757812 33.703125 -19.96875 C 36.703125 -17.175781 40.882812 -15.78125 46.25 -15.78125 C 49.9375 -15.78125 53.039062 -16.488281 55.5625 -17.90625 C 58.09375 -19.332031 60.039062 -21.441406 61.40625 -24.234375 C 62.769531 -27.023438 63.453125 -30.414062 63.453125 -34.40625 L 63.453125 -74.828125 C 63.453125 -77.554688 64.347656 -79.84375 66.140625 -81.6875 C 67.929688 -83.53125 70.195312 -84.453125 72.9375 -84.453125 Z M 72.9375 -84.453125 "/></g></g></g><g clip-path="url(#57cdb15044)"><path fill="#ffffff" d="M 407.792969 225.203125 C 407.230469 226.332031 407.230469 227.464844 407.792969 228.59375 C 408.359375 229.722656 409.488281 230.289062 410.621094 230.289062 L 455.269531 230.289062 L 381.796875 380.628906 L 413.445312 259.113281 C 413.445312 257.984375 413.445312 256.851562 412.878906 256.289062 C 412.316406 255.722656 411.183594 255.15625 410.054688 255.15625 L 365.96875 255.15625 L 413.445312 169.816406 C 414.011719 168.683594 414.011719 167.554688 413.445312 166.421875 C 412.878906 165.292969 411.75 164.726562 410.621094 164.726562 L 356.363281 164.726562 L 430.964844 52.820312 L 407.230469 130.816406 C 406.664062 131.949219 407.230469 133.078125 407.792969 133.644531 C 408.359375 134.207031 409.488281 134.773438 410.621094 134.773438 L 466.574219 134.773438 Z M 407.792969 225.203125 " fill-opacity="1" fill-rule="nonzero"/></g></svg>